<svg width="18" height="18" viewBox="0 0 18 18" fill="none" xmlns="http://www.w3.org/2000/svg">
<path d="M16.0296 12.51C15.6414 13.372 15.4544 13.7573 14.9552 14.5181C14.2563 15.5812 13.2705 16.9087 12.0527 16.9172C10.9685 16.927 10.6886 16.2098 9.21627 16.2225C7.74533 16.2295 7.43877 16.9312 6.35315 16.92C5.13393 16.9087 4.20158 15.7134 3.50268 14.6517C1.54799 11.6747 1.34127 8.18436 2.54924 6.32811C3.40424 5.01186 4.75565 4.23842 6.02549 4.23842C7.31924 4.23842 8.13205 4.94858 9.2008 4.94858C10.2386 4.94858 10.87 4.23702 12.3663 4.23702C13.4969 4.23702 14.6922 4.85295 15.5472 5.91608C12.7516 7.44889 13.2058 11.4412 16.0296 12.51ZM11.23 3.04874C11.7742 2.34983 12.1877 1.36405 12.0372 0.359985C11.1499 0.420454 10.1121 0.987173 9.50596 1.72124C8.95612 2.39061 8.50049 3.38342 8.67768 4.34389C9.64658 4.37483 10.6492 3.79686 11.23 3.04874Z" fill="black"/>
</svg>
