<svg width="24" height="24" viewBox="0 0 24 24" fill="none" xmlns="http://www.w3.org/2000/svg">
<path d="M12.0088 13.3912L12 13.3824L11.9912 13.3912L7.09116 18.2912C6.9104 18.472 6.68036 18.5625 6.4 18.5625C6.11965 18.5625 5.8896 18.472 5.70884 18.2912C5.52808 18.1104 5.4375 17.8804 5.4375 17.6C5.4375 17.3197 5.52808 17.0896 5.70884 16.9089L10.6088 12.0089L10.6177 12L10.6088 11.9912L5.70884 7.09121C5.52808 6.91045 5.4375 6.68041 5.4375 6.40005C5.4375 6.11969 5.52808 5.88965 5.70884 5.70889C5.8896 5.52813 6.11965 5.43755 6.4 5.43755C6.68036 5.43755 6.9104 5.52813 7.09116 5.70889L11.9912 10.6089L12 10.6177L12.0088 10.6089L16.9088 5.70889C17.0896 5.52813 17.3196 5.43755 17.6 5.43755C17.8804 5.43755 18.1104 5.52813 18.2912 5.70889C18.4719 5.88965 18.5625 6.11969 18.5625 6.40005C18.5625 6.68041 18.4719 6.91045 18.2912 7.09121L13.3912 11.9912L13.3823 12L13.3912 12.0089L18.2912 16.9089C18.4719 17.0896 18.5625 17.3197 18.5625 17.6C18.5625 17.8804 18.4719 18.1104 18.2912 18.2912C18.1104 18.472 17.8804 18.5625 17.6 18.5625C17.3196 18.5625 17.0896 18.472 16.9088 18.2912L12.0088 13.3912Z" fill="#3B82F6" stroke="#3B82F6" stroke-width="0.025"/>
</svg>
