<svg width="24" height="24" viewBox="0 0 24 24" fill="none" xmlns="http://www.w3.org/2000/svg">
<g clip-path="url(#clip0_17_1817)">
<g filter="url(#filter0_d_17_1817)">
<path d="M3 8.25C3 5.765 5.099 3.75 7.688 3.75C9.623 3.75 11.285 4.876 12 6.483C12.715 4.876 14.377 3.75 16.313 3.75C18.9 3.75 21 5.765 21 8.25C21 15.47 12 20.25 12 20.25C12 20.25 3 15.47 3 8.25Z" fill="#A1A1A1" fill-opacity="0.4" shape-rendering="crispEdges"/>
<path d="M3 8.25C3 5.765 5.099 3.75 7.688 3.75C9.623 3.75 11.285 4.876 12 6.483C12.715 4.876 14.377 3.75 16.313 3.75C18.9 3.75 21 5.765 21 8.25C21 15.47 12 20.25 12 20.25C12 20.25 3 15.47 3 8.25Z" stroke="white" stroke-width="1.38916" stroke-linecap="round" stroke-linejoin="round" shape-rendering="crispEdges"/>
</g>
</g>
<defs>
<filter id="filter0_d_17_1817" x="-1.39901" y="-0.649014" width="26.798" height="25.298" filterUnits="userSpaceOnUse" color-interpolation-filters="sRGB">
<feFlood flood-opacity="0" result="BackgroundImageFix"/>
<feColorMatrix in="SourceAlpha" type="matrix" values="0 0 0 0 0 0 0 0 0 0 0 0 0 0 0 0 0 0 127 0" result="hardAlpha"/>
<feOffset/>
<feGaussianBlur stdDeviation="1.85222"/>
<feComposite in2="hardAlpha" operator="out"/>
<feColorMatrix type="matrix" values="0 0 0 0 0 0 0 0 0 0 0 0 0 0 0 0 0 0 0.1 0"/>
<feBlend mode="normal" in2="BackgroundImageFix" result="effect1_dropShadow_17_1817"/>
<feBlend mode="normal" in="SourceGraphic" in2="effect1_dropShadow_17_1817" result="shape"/>
</filter>
<clipPath id="clip0_17_1817">
<rect width="24" height="24" fill="white" transform="matrix(-1 0 0 1 24 0)"/>
</clipPath>
</defs>
</svg>
