<svg width="19" height="18" viewBox="0 0 19 18" fill="none" xmlns="http://www.w3.org/2000/svg">
<path d="M9.5 1.5C7.51088 1.5 5.60322 2.29018 4.1967 3.6967C2.79018 5.10322 2 7.01088 2 9C2 10.9891 2.79018 12.8968 4.1967 14.3033C5.60322 15.7098 7.51088 16.5 9.5 16.5C11.4891 16.5 13.3968 15.7098 14.8033 14.3033C16.2098 12.8968 17 10.9891 17 9C17 7.01088 16.2098 5.10322 14.8033 3.6967C13.3968 2.29018 11.4891 1.5 9.5 1.5Z" fill="#3F51B5"/>
<path d="M11.513 9H10.25V13.5H8.375V9H7.25V7.5H8.375V6.59625C8.37575 5.28075 8.92212 4.5 10.472 4.5H11.75V6H10.8924C10.289 6 10.25 6.225 10.25 6.64612V7.5H11.75L11.513 9Z" fill="white"/>
</svg>
