<svg width="24" height="24" viewBox="0 0 24 24" fill="none" xmlns="http://www.w3.org/2000/svg">
<path d="M11.965 16.2C12.21 16.2 12.4171 16.1154 12.5862 15.9462C12.7554 15.7771 12.84 15.57 12.84 15.325C12.84 15.08 12.7554 14.8729 12.5862 14.7037C12.4171 14.5346 12.21 14.45 11.965 14.45C11.72 14.45 11.5129 14.5346 11.3438 14.7037C11.1746 14.8729 11.09 15.08 11.09 15.325C11.09 15.57 11.1746 15.7771 11.3438 15.9462C11.5129 16.1154 11.72 16.2 11.965 16.2ZM12 19C11.0317 19 10.1217 18.8162 9.27 18.4488C8.41833 18.0813 7.6775 17.5825 7.0475 16.9525C6.4175 16.3225 5.91875 15.5817 5.55125 14.73C5.18375 13.8783 5 12.9683 5 12C5 11.0317 5.18375 10.1217 5.55125 9.27C5.91875 8.41833 6.4175 7.6775 7.0475 7.0475C7.6775 6.4175 8.41833 5.91875 9.27 5.55125C10.1217 5.18375 11.0317 5 12 5C12.9683 5 13.8783 5.18375 14.73 5.55125C15.5817 5.91875 16.3225 6.4175 16.9525 7.0475C17.5825 7.6775 18.0813 8.41833 18.4488 9.27C18.8162 10.1217 19 11.0317 19 12C19 12.9683 18.8162 13.8783 18.4488 14.73C18.0813 15.5817 17.5825 16.3225 16.9525 16.9525C16.3225 17.5825 15.5817 18.0813 14.73 18.4488C13.8783 18.8162 12.9683 19 12 19ZM12 17.6C13.5633 17.6 14.8875 17.0575 15.9725 15.9725C17.0575 14.8875 17.6 13.5633 17.6 12C17.6 10.4367 17.0575 9.1125 15.9725 8.0275C14.8875 6.9425 13.5633 6.4 12 6.4C10.4367 6.4 9.1125 6.9425 8.0275 8.0275C6.9425 9.1125 6.4 10.4367 6.4 12C6.4 13.5633 6.9425 14.8875 8.0275 15.9725C9.1125 17.0575 10.4367 17.6 12 17.6ZM12.07 8.99C12.3617 8.99 12.6154 9.08333 12.8313 9.27C13.0471 9.45667 13.155 9.69 13.155 9.97C13.155 10.2267 13.0763 10.4542 12.9187 10.6525C12.7613 10.8508 12.5833 11.0375 12.385 11.2125C12.1167 11.4458 11.8804 11.7025 11.6762 11.9825C11.4721 12.2625 11.37 12.5775 11.37 12.9275C11.37 13.0908 11.4313 13.2279 11.5538 13.3387C11.6762 13.4496 11.8192 13.505 11.9825 13.505C12.1575 13.505 12.3063 13.4467 12.4288 13.33C12.5512 13.2133 12.63 13.0675 12.665 12.8925C12.7117 12.6475 12.8167 12.4288 12.98 12.2362C13.1433 12.0437 13.3183 11.86 13.505 11.685C13.7733 11.4283 14.0037 11.1483 14.1962 10.845C14.3888 10.5417 14.485 10.2033 14.485 9.83C14.485 9.235 14.2429 8.74792 13.7587 8.36875C13.2746 7.98958 12.7117 7.8 12.07 7.8C11.6267 7.8 11.2038 7.89333 10.8012 8.08C10.3987 8.26667 10.0925 8.5525 9.8825 8.9375C9.80083 9.0775 9.77458 9.22625 9.80375 9.38375C9.83292 9.54125 9.91167 9.66083 10.04 9.7425C10.2033 9.83583 10.3725 9.865 10.5475 9.83C10.7225 9.795 10.8683 9.69583 10.985 9.5325C11.1133 9.3575 11.2737 9.22333 11.4662 9.13C11.6588 9.03667 11.86 8.99 12.07 8.99Z" fill="#9CA3AF"/>
</svg>
