<svg width="24" height="24" viewBox="0 0 24 24" fill="none" xmlns="http://www.w3.org/2000/svg">
<path d="M0 11.7591C0 12.2625 0.383449 12.6885 1.0127 12.6885C1.31749 12.6885 1.58296 12.5336 1.81893 12.3303L2.94961 11.4009V20.4145C2.94961 21.8474 3.82466 22.6897 5.31913 22.6897H18.6219C20.1163 22.6897 20.9914 21.8474 20.9914 20.4145V11.3428L22.1909 12.3303C22.4269 12.5336 22.6923 12.6885 22.9971 12.6885C23.5674 12.6885 24 12.34 24 11.7881C24 11.459 23.8722 11.1976 23.6166 10.9942L20.9914 8.81587V4.70118C20.9914 4.2655 20.7063 3.98474 20.2638 3.98474H18.9365C18.5039 3.98474 18.2089 4.2655 18.2089 4.70118V6.51164L13.3912 2.52281C12.5457 1.82573 11.4838 1.82573 10.6284 2.52281L0.383449 10.9942C0.127816 11.2072 0 11.488 0 11.7591ZM14.8267 14.4409C14.8267 13.9859 14.5317 13.6954 14.0696 13.6954H9.93036C9.47808 13.6954 9.16346 13.9859 9.16346 14.4409V20.7921H5.8304C5.21098 20.7921 4.87669 20.4532 4.87669 19.8433V9.8034L11.592 4.2655C11.8574 4.03314 12.1622 4.03314 12.4277 4.2655L19.0643 9.74531V19.8433C19.0643 20.4532 18.73 20.7921 18.1106 20.7921H14.8267V14.4409Z" fill="#374151"/>
</svg>
