<svg width="24" height="24" viewBox="0 0 24 24" fill="none" xmlns="http://www.w3.org/2000/svg">
<path d="M16.15 19H5C4.71666 19 4.47916 18.9042 4.2875 18.7125C4.09583 18.5208 4 18.2833 4 18C4 17.7167 4.09583 17.4792 4.2875 17.2875C4.47916 17.0958 4.71666 17 5 17H6V10C6 9.45 6.07083 8.90833 6.2125 8.375C6.35416 7.84167 6.56666 7.33333 6.85 6.85L8.35 8.35C8.23333 8.61667 8.14583 8.8875 8.0875 9.1625C8.02916 9.4375 8 9.71667 8 10V17H14.2L2.1 4.9C1.91666 4.71667 1.825 4.48333 1.825 4.2C1.825 3.91667 1.91666 3.68333 2.1 3.5C2.28333 3.31667 2.51666 3.225 2.8 3.225C3.08333 3.225 3.31666 3.31667 3.5 3.5L20.5 20.5C20.6833 20.6833 20.7792 20.9125 20.7875 21.1875C20.7958 21.4625 20.7 21.7 20.5 21.9C20.3167 22.0833 20.0833 22.175 19.8 22.175C19.5167 22.175 19.2833 22.0833 19.1 21.9L16.15 19ZM13.5 4.2C14.8333 4.53333 15.9167 5.2375 16.75 6.3125C17.5833 7.3875 18 8.61667 18 10V12.75C18 13.0833 17.8958 13.3333 17.6875 13.5C17.4792 13.6667 17.25 13.75 17 13.75C16.75 13.75 16.5208 13.6625 16.3125 13.4875C16.1042 13.3125 16 13.0583 16 12.725V10C16 8.9 15.6083 7.95833 14.825 7.175C14.0417 6.39167 13.1 6 12 6C11.7333 6 11.45 6.03333 11.15 6.1C10.85 6.16667 10.5833 6.25 10.35 6.35C10.0667 6.46667 9.7875 6.49167 9.5125 6.425C9.2375 6.35833 9.025 6.2 8.875 5.95C8.74166 5.73333 8.69583 5.50417 8.7375 5.2625C8.77916 5.02083 8.90833 4.84167 9.125 4.725C9.34166 4.60833 9.56666 4.50833 9.8 4.425C10.0333 4.34167 10.2667 4.26667 10.5 4.2V3.5C10.5 3.08333 10.6458 2.72917 10.9375 2.4375C11.2292 2.14583 11.5833 2 12 2C12.4167 2 12.7708 2.14583 13.0625 2.4375C13.3542 2.72917 13.5 3.08333 13.5 3.5V4.2ZM12 22C11.5 22 11.0542 21.8625 10.6625 21.5875C10.2708 21.3125 10.075 20.9417 10.075 20.475C10.075 20.3417 10.1292 20.2292 10.2375 20.1375C10.3458 20.0458 10.4667 20 10.6 20H13.4C13.5333 20 13.6542 20.0458 13.7625 20.1375C13.8708 20.2292 13.925 20.3417 13.925 20.475C13.925 20.9417 13.7292 21.3125 13.3375 21.5875C12.9458 21.8625 12.5 22 12 22Z" fill="#374151"/>
</svg>
