<svg width="14" height="14" viewBox="0 0 14 14" fill="none" xmlns="http://www.w3.org/2000/svg">
<path d="M6.66667 6.66667C6.025 6.66667 5.47569 6.43819 5.01875 5.98125C4.56181 5.52431 4.33333 4.975 4.33333 4.33333C4.33333 3.69167 4.56181 3.14236 5.01875 2.68542C5.47569 2.22847 6.025 2 6.66667 2C7.30833 2 7.85764 2.22847 8.31458 2.68542C8.77153 3.14236 9 3.69167 9 4.33333C9 4.975 8.77153 5.52431 8.31458 5.98125C7.85764 6.43819 7.30833 6.66667 6.66667 6.66667ZM2 10.1667V9.7C2 9.36944 2.08507 9.06562 2.25521 8.78854C2.42535 8.51146 2.65139 8.3 2.93333 8.15417C3.53611 7.85278 4.14861 7.62674 4.77083 7.47604C5.39306 7.32535 6.025 7.25 6.66667 7.25C7.30833 7.25 7.94028 7.32535 8.5625 7.47604C9.18472 7.62674 9.79722 7.85278 10.4 8.15417C10.6819 8.3 10.908 8.51146 11.0781 8.78854C11.2483 9.06562 11.3333 9.36944 11.3333 9.7V10.1667C11.3333 10.4875 11.2191 10.7622 10.9906 10.9906C10.7622 11.2191 10.4875 11.3333 10.1667 11.3333H3.16667C2.84583 11.3333 2.57118 11.2191 2.34271 10.9906C2.11424 10.7622 2 10.4875 2 10.1667Z" fill="#9CA3AF"/>
</svg>
