<svg width="17" height="16" viewBox="0 0 17 16" fill="none" xmlns="http://www.w3.org/2000/svg">
<path d="M8.28631 14.4C7.08631 14.4 6.11965 14.225 5.38631 13.875C4.65298 13.525 4.28631 13.0666 4.28631 12.5C4.28631 12.3111 4.33354 12.1297 4.42798 11.9558C4.52243 11.7819 4.66409 11.6189 4.85298 11.4666C4.99743 11.3778 5.15298 11.3555 5.31965 11.4C5.48631 11.4444 5.61409 11.5389 5.70298 11.6833C5.79187 11.8278 5.81409 11.9805 5.76965 12.1416C5.7252 12.3028 5.63076 12.4278 5.48631 12.5166C5.5752 12.6722 5.91965 12.825 6.51965 12.975C7.11965 13.125 7.70854 13.2 8.28631 13.2C8.86409 13.2 9.45298 13.125 10.053 12.975C10.653 12.825 10.9974 12.6722 11.0863 12.5166C10.9419 12.4278 10.8474 12.3028 10.803 12.1416C10.7585 11.9805 10.7808 11.8278 10.8696 11.6833C10.9585 11.5389 11.0863 11.4444 11.253 11.4C11.4196 11.3555 11.5752 11.3778 11.7196 11.4666C11.9085 11.6189 12.0502 11.7819 12.1446 11.9558C12.2391 12.1297 12.2863 12.3111 12.2863 12.5C12.2863 13.0666 11.9196 13.525 11.1863 13.875C10.453 14.225 9.48631 14.4 8.28631 14.4ZM8.30298 10.9C9.35854 10.1222 10.153 9.32498 10.6863 8.50831C11.2196 7.69164 11.4863 6.88836 11.4863 6.09848C11.4863 5.00959 11.1419 4.18764 10.453 3.63264C9.76409 3.07753 9.04187 2.79998 8.28631 2.79998C7.53076 2.79998 6.80854 3.07831 6.11965 3.63498C5.43076 4.19153 5.08631 5.0157 5.08631 6.10748C5.08631 6.8247 5.35298 7.58609 5.88631 8.39164C6.41965 9.1972 7.2252 10.0333 8.30298 10.9ZM8.28631 12.1166C8.16409 12.1166 8.04187 12.0972 7.91965 12.0583C7.79743 12.0194 7.68631 11.9555 7.58631 11.8666C6.34187 10.8666 5.41409 9.88053 4.80298 8.90831C4.19187 7.93609 3.88631 7.00114 3.88631 6.10348C3.88631 5.36248 4.01965 4.71275 4.28631 4.15431C4.55298 3.59586 4.89743 3.12775 5.31965 2.74998C5.74187 2.3722 6.21393 2.08609 6.73581 1.89164C7.2577 1.6972 7.77437 1.59998 8.28581 1.59998C8.79726 1.59998 9.31409 1.6972 9.83631 1.89164C10.3585 2.08609 10.83 2.37214 11.2506 2.74981C11.6714 3.12748 12.0159 3.59692 12.284 4.15814C12.5522 4.71936 12.6863 5.36931 12.6863 6.10798C12.6863 7.00264 12.3808 7.93609 11.7696 8.90831C11.1585 9.88053 10.2308 10.8666 8.98631 11.8666C8.88631 11.9555 8.7752 12.0194 8.65298 12.0583C8.53076 12.0972 8.40854 12.1166 8.28631 12.1166ZM8.28981 7.19998C8.62081 7.19998 8.90298 7.08214 9.13631 6.84648C9.36965 6.61081 9.48631 6.32748 9.48631 5.99648C9.48631 5.66548 9.36848 5.38331 9.13281 5.14998C8.89715 4.91664 8.61381 4.79998 8.28281 4.79998C7.95181 4.79998 7.66965 4.91942 7.43631 5.15831C7.20298 5.3972 7.08631 5.67775 7.08631 5.99998C7.08631 6.3222 7.20415 6.60275 7.43981 6.84164C7.67548 7.08053 7.95881 7.19998 8.28981 7.19998Z" fill="#6B7280"/>
</svg>
