<svg width="16" height="16" viewBox="0 0 16 16" fill="none" xmlns="http://www.w3.org/2000/svg">
<path d="M8.00001 14.4C6.80001 14.4 5.83334 14.225 5.10001 13.875C4.36667 13.525 4.00001 13.0667 4.00001 12.5C4.00001 12.3111 4.04723 12.1297 4.14167 11.9558C4.23612 11.782 4.37778 11.6189 4.56667 11.4667C4.71112 11.3778 4.86667 11.3556 5.03334 11.4C5.20001 11.4445 5.32778 11.5389 5.41667 11.6833C5.50556 11.8278 5.52778 11.9806 5.48334 12.1417C5.4389 12.3028 5.34445 12.4278 5.20001 12.5167C5.2889 12.6722 5.63334 12.825 6.23334 12.975C6.83334 13.125 7.42223 13.2 8.00001 13.2C8.57778 13.2 9.16667 13.125 9.76667 12.975C10.3667 12.825 10.7111 12.6722 10.8 12.5167C10.6556 12.4278 10.5611 12.3028 10.5167 12.1417C10.4722 11.9806 10.4945 11.8278 10.5833 11.6833C10.6722 11.5389 10.8 11.4445 10.9667 11.4C11.1333 11.3556 11.2889 11.3778 11.4333 11.4667C11.6222 11.6189 11.7639 11.782 11.8583 11.9558C11.9528 12.1297 12 12.3111 12 12.5C12 13.0667 11.6333 13.525 10.9 13.875C10.1667 14.225 9.20001 14.4 8.00001 14.4ZM8.01667 10.9C9.07223 10.1222 9.86667 9.32501 10.4 8.50834C10.9333 7.69167 11.2 6.88839 11.2 6.09851C11.2 5.00962 10.8556 4.18767 10.1667 3.63267C9.47778 3.07756 8.75556 2.80001 8.00001 2.80001C7.24445 2.80001 6.52223 3.07834 5.83334 3.63501C5.14445 4.19156 4.80001 5.01573 4.80001 6.10751C4.80001 6.82473 5.06667 7.58612 5.60001 8.39167C6.13334 9.19723 6.9389 10.0333 8.01667 10.9ZM8.00001 12.1167C7.87778 12.1167 7.75556 12.0972 7.63334 12.0583C7.51112 12.0195 7.40001 11.9556 7.30001 11.8667C6.05556 10.8667 5.12778 9.88056 4.51667 8.90834C3.90556 7.93612 3.60001 7.00117 3.60001 6.10351C3.60001 5.36251 3.73334 4.71278 4.00001 4.15434C4.26667 3.5959 4.61112 3.12778 5.03334 2.75001C5.45556 2.37223 5.92762 2.08612 6.44951 1.89167C6.9714 1.69723 7.48806 1.60001 7.99951 1.60001C8.51095 1.60001 9.02778 1.69723 9.55001 1.89167C10.0722 2.08612 10.5437 2.37217 10.9643 2.74984C11.3851 3.12751 11.7296 3.59695 11.9977 4.15817C12.2659 4.71939 12.4 5.36934 12.4 6.10801C12.4 7.00267 12.0945 7.93612 11.4833 8.90834C10.8722 9.88056 9.94445 10.8667 8.70001 11.8667C8.60001 11.9556 8.4889 12.0195 8.36667 12.0583C8.24445 12.0972 8.12223 12.1167 8.00001 12.1167ZM8.00351 7.20001C8.33451 7.20001 8.61667 7.08217 8.85001 6.84651C9.08334 6.61084 9.20001 6.32751 9.20001 5.99651C9.20001 5.66551 9.08217 5.38334 8.84651 5.15001C8.61084 4.91667 8.32751 4.80001 7.99651 4.80001C7.66551 4.80001 7.38334 4.91945 7.15001 5.15834C6.91667 5.39723 6.80001 5.67778 6.80001 6.00001C6.80001 6.32223 6.91784 6.60278 7.15351 6.84167C7.38917 7.08056 7.67251 7.20001 8.00351 7.20001Z" fill="white"/>
</svg>
