<svg width="17" height="16" viewBox="0 0 17 16" fill="none" xmlns="http://www.w3.org/2000/svg">
<path d="M7.4445 8.96469H1.88894C1.57413 8.96469 1.31024 8.85821 1.09728 8.64525C0.884314 8.43229 0.777832 8.1684 0.777832 7.85358C0.777832 7.53877 0.884314 7.27488 1.09728 7.06192C1.31024 6.84895 1.57413 6.74247 1.88894 6.74247H7.4445V1.18692C7.4445 0.872102 7.55098 0.608213 7.76394 0.39525C7.97691 0.182287 8.2408 0.0758057 8.55561 0.0758057C8.87043 0.0758057 9.13431 0.182287 9.34728 0.39525C9.56024 0.608213 9.66672 0.872102 9.66672 1.18692V6.74247H15.2223C15.5371 6.74247 15.801 6.84895 16.0139 7.06192C16.2269 7.27488 16.3334 7.53877 16.3334 7.85358C16.3334 8.1684 16.2269 8.43229 16.0139 8.64525C15.801 8.85821 15.5371 8.96469 15.2223 8.96469H9.66672V14.5203C9.66672 14.8351 9.56024 15.099 9.34728 15.3119C9.13431 15.5249 8.87043 15.6314 8.55561 15.6314C8.2408 15.6314 7.97691 15.5249 7.76394 15.3119C7.55098 15.099 7.4445 14.8351 7.4445 14.5203V8.96469Z" fill="#374151"/>
</svg>
