<svg width="17" height="16" viewBox="0 0 17 16" fill="none" xmlns="http://www.w3.org/2000/svg">
<path d="M5.28631 5.59998V2.19998C5.28631 2.02998 5.34348 1.88748 5.45781 1.77248C5.57215 1.65748 5.71381 1.59998 5.88281 1.59998C6.05181 1.59998 6.19465 1.65748 6.31131 1.77248C6.42798 1.88748 6.48631 2.02998 6.48631 2.19998V5.59998H7.08631V2.19998C7.08631 2.02998 7.14348 1.88748 7.25781 1.77248C7.37215 1.65748 7.51381 1.59998 7.68281 1.59998C7.85181 1.59998 7.99465 1.65748 8.11131 1.77248C8.22798 1.88748 8.28631 2.02998 8.28631 2.19998V5.59998C8.28631 6.16442 8.11687 6.65831 7.77798 7.08164C7.43909 7.50498 7.00854 7.78331 6.48631 7.91664V13.8C6.48631 13.97 6.42915 14.1125 6.31481 14.2275C6.20048 14.3425 6.05881 14.4 5.88981 14.4C5.72081 14.4 5.57798 14.3425 5.46131 14.2275C5.34465 14.1125 5.28631 13.97 5.28631 13.8V7.91664C4.76409 7.78331 4.33354 7.50498 3.99465 7.08164C3.65576 6.65831 3.48631 6.16442 3.48631 5.59998V2.19998C3.48631 2.02998 3.54348 1.88748 3.65781 1.77248C3.77215 1.65748 3.91381 1.59998 4.08281 1.59998C4.25181 1.59998 4.39465 1.65748 4.51131 1.77248C4.62798 1.88748 4.68631 2.02998 4.68631 2.19998V5.59998H5.28631ZM11.8863 8.79998H10.4863C10.3163 8.79998 10.1738 8.74248 10.0588 8.62748C9.94381 8.51248 9.88631 8.36998 9.88631 8.19998V4.79998C9.88631 3.89998 10.1308 3.14164 10.6196 2.52498C11.1085 1.90831 11.7141 1.59998 12.4363 1.59998C12.622 1.59998 12.7768 1.66948 12.9006 1.80848C13.0244 1.94748 13.0863 2.11131 13.0863 2.29998V13.8C13.0863 13.97 13.0291 14.1125 12.9148 14.2275C12.8005 14.3425 12.6588 14.4 12.4898 14.4C12.3208 14.4 12.178 14.3425 12.0613 14.2275C11.9446 14.1125 11.8863 13.97 11.8863 13.8V8.79998Z" fill="#6B7280"/>
</svg>
