<svg width="17" height="17" viewBox="0 0 17 17" fill="none" xmlns="http://www.w3.org/2000/svg">
<path d="M8.88631 7.99998V5.09998C8.88631 4.92998 8.82915 4.78748 8.71481 4.67248C8.60048 4.55748 8.45881 4.49998 8.28981 4.49998C8.12081 4.49998 7.97798 4.55748 7.86131 4.67248C7.74465 4.78748 7.68631 4.92998 7.68631 5.09998V8.24998C7.68631 8.33886 7.70298 8.41942 7.73631 8.49164C7.76965 8.56386 7.81409 8.62775 7.86965 8.68331L10.1005 10.9141C10.2244 11.038 10.3669 11.0972 10.528 11.0916C10.6891 11.0861 10.8308 11.0222 10.953 10.9C11.0752 10.7778 11.1363 10.6361 11.1363 10.475C11.1363 10.3139 11.0733 10.1708 10.9473 10.0458L8.88631 7.99998ZM8.28631 14.9C7.40431 14.9 6.57548 14.7333 5.79981 14.4C5.02415 14.0666 4.34465 13.6083 3.76131 13.025C3.17798 12.4416 2.71965 11.7613 2.38631 10.984C2.05298 10.2066 1.88631 9.37609 1.88631 8.49231C1.88631 7.60853 2.05298 6.77775 2.38631 5.99998C2.71965 5.2222 3.17798 4.54442 3.76131 3.96664C4.34465 3.38886 5.02498 2.93331 5.80231 2.59998C6.57965 2.26664 7.4102 2.09998 8.29398 2.09998C9.17776 2.09998 10.0086 2.26798 10.7865 2.60398C11.5643 2.93998 12.2409 3.39598 12.8163 3.97198C13.3916 4.54798 13.8471 5.22531 14.1828 6.00398C14.5185 6.78264 14.6863 7.61464 14.6863 8.49998C14.6863 9.38198 14.5196 10.2108 14.1863 10.9865C13.853 11.7621 13.3974 12.4416 12.8196 13.025C12.2419 13.6083 11.5634 14.0666 10.7841 14.4C10.0049 14.7333 9.17231 14.9 8.28631 14.9ZM8.29431 13.7C9.73287 13.7 10.9579 13.1916 11.9693 12.175C12.9806 11.1583 13.4863 9.93064 13.4863 8.49198C13.4863 7.05342 12.9806 5.82842 11.9693 4.81698C10.9579 3.80564 9.73287 3.29998 8.29431 3.29998C6.85565 3.29998 5.62798 3.80564 4.61131 4.81698C3.59465 5.82842 3.08631 7.05342 3.08631 8.49198C3.08631 9.93064 3.59465 11.1583 4.61131 12.175C5.62798 13.1916 6.85565 13.7 8.29431 13.7Z" fill="#6B7280"/>
</svg>
