<svg width="32" height="32" viewBox="0 0 32 32" fill="none" xmlns="http://www.w3.org/2000/svg">
<path d="M14.345 26C13.895 26 13.5075 25.85 13.1825 25.55C12.8575 25.25 12.6617 24.8833 12.595 24.45L12.37 22.8C12.1533 22.7167 11.9492 22.6167 11.7575 22.5C11.5658 22.3833 11.3783 22.2583 11.195 22.125L9.645 22.775C9.22833 22.9583 8.81167 22.975 8.395 22.825C7.97833 22.675 7.65333 22.4083 7.42 22.025L6.245 19.975C6.01167 19.5917 5.945 19.1833 6.045 18.75C6.145 18.3167 6.37 17.9583 6.72 17.675L8.045 16.675C8.02833 16.5583 8.02 16.4458 8.02 16.3375V15.6625C8.02 15.5542 8.02833 15.4417 8.045 15.325L6.72 14.325C6.37 14.0417 6.145 13.6833 6.045 13.25C5.945 12.8167 6.01167 12.4083 6.245 12.025L7.42 9.975C7.65333 9.59167 7.97833 9.325 8.395 9.175C8.81167 9.025 9.22833 9.04167 9.645 9.225L11.195 9.875C11.3783 9.74167 11.57 9.61667 11.77 9.5C11.97 9.38333 12.17 9.28333 12.37 9.2L12.595 7.55C12.6617 7.11667 12.8575 6.75 13.1825 6.45C13.5075 6.15 13.895 6 14.345 6H16.695C17.145 6 17.5325 6.15 17.8575 6.45C18.1825 6.75 18.3783 7.11667 18.445 7.55L18.67 9.2C18.8867 9.28333 19.0908 9.38333 19.2825 9.5C19.4742 9.61667 19.6617 9.74167 19.845 9.875L21.395 9.225C21.8117 9.04167 22.2283 9.025 22.645 9.175C23.0617 9.325 23.3867 9.59167 23.62 9.975L24.795 12.025C25.0283 12.4083 25.095 12.8167 24.995 13.25C24.895 13.6833 24.67 14.0417 24.32 14.325L22.995 15.325C23.0117 15.4417 23.02 15.5542 23.02 15.6625V16.3375C23.02 16.4458 23.0033 16.5583 22.97 16.675L24.295 17.675C24.645 17.9583 24.87 18.3167 24.97 18.75C25.07 19.1833 25.0033 19.5917 24.77 19.975L23.57 22.025C23.3367 22.4083 23.0117 22.675 22.595 22.825C22.1783 22.975 21.7617 22.9583 21.345 22.775L19.845 22.125C19.6617 22.2583 19.47 22.3833 19.27 22.5C19.07 22.6167 18.87 22.7167 18.67 22.8L18.445 24.45C18.3783 24.8833 18.1825 25.25 17.8575 25.55C17.5325 25.85 17.145 26 16.695 26H14.345ZM14.52 24H16.495L16.845 21.35C17.3617 21.2167 17.8408 21.0208 18.2825 20.7625C18.7242 20.5042 19.1283 20.1917 19.495 19.825L21.97 20.85L22.945 19.15L20.795 17.525C20.8783 17.2917 20.9367 17.0458 20.97 16.7875C21.0033 16.5292 21.02 16.2667 21.02 16C21.02 15.7333 21.0033 15.4708 20.97 15.2125C20.9367 14.9542 20.8783 14.7083 20.795 14.475L22.945 12.85L21.97 11.15L19.495 12.2C19.1283 11.8167 18.7242 11.4958 18.2825 11.2375C17.8408 10.9792 17.3617 10.7833 16.845 10.65L16.52 8H14.545L14.195 10.65C13.6783 10.7833 13.1992 10.9792 12.7575 11.2375C12.3158 11.4958 11.9117 11.8083 11.545 12.175L9.07 11.15L8.095 12.85L10.245 14.45C10.1617 14.7 10.1033 14.95 10.07 15.2C10.0367 15.45 10.02 15.7167 10.02 16C10.02 16.2667 10.0367 16.525 10.07 16.775C10.1033 17.025 10.1617 17.275 10.245 17.525L8.095 19.15L9.07 20.85L11.545 19.8C11.9117 20.1833 12.3158 20.5042 12.7575 20.7625C13.1992 21.0208 13.6783 21.2167 14.195 21.35L14.52 24ZM15.57 19.5C16.5367 19.5 17.3617 19.1583 18.045 18.475C18.7283 17.7917 19.07 16.9667 19.07 16C19.07 15.0333 18.7283 14.2083 18.045 13.525C17.3617 12.8417 16.5367 12.5 15.57 12.5C14.5867 12.5 13.7575 12.8417 13.0825 13.525C12.4075 14.2083 12.07 15.0333 12.07 16C12.07 16.9667 12.4075 17.7917 13.0825 18.475C13.7575 19.1583 14.5867 19.5 15.57 19.5Z" fill="#6B7280"/>
</svg>
