<svg width="17" height="16" viewBox="0 0 17 16" fill="none" xmlns="http://www.w3.org/2000/svg">
<g clip-path="url(#clip0_289_3186)">
<path d="M1.38889 16C1.13704 16 0.925926 15.8722 0.755556 15.6167C0.585185 15.3611 0.5 15.0444 0.5 14.6667C0.5 14.2889 0.585185 13.9722 0.755556 13.7167C0.925926 13.4611 1.13704 13.3333 1.38889 13.3333H4.94444C5.1963 13.3333 5.40741 13.4611 5.57778 13.7167C5.74815 13.9722 5.83333 14.2889 5.83333 14.6667C5.83333 15.0444 5.74815 15.3611 5.57778 15.6167C5.40741 15.8722 5.1963 16 4.94444 16H1.38889ZM1.38889 9.33333C1.13704 9.33333 0.925926 9.20556 0.755556 8.95C0.585185 8.69444 0.5 8.37778 0.5 8C0.5 7.62222 0.585185 7.30556 0.755556 7.05C0.925926 6.79445 1.13704 6.66667 1.38889 6.66667H10.2778C10.5296 6.66667 10.7407 6.79445 10.9111 7.05C11.0815 7.30556 11.1667 7.62222 11.1667 8C11.1667 8.37778 11.0815 8.69444 10.9111 8.95C10.7407 9.20556 10.5296 9.33333 10.2778 9.33333H1.38889ZM1.38889 2.66667C1.13704 2.66667 0.925926 2.53889 0.755556 2.28333C0.585185 2.02778 0.5 1.71111 0.5 1.33333C0.5 0.955556 0.585185 0.638889 0.755556 0.383333C0.925926 0.127778 1.13704 0 1.38889 0H15.6111C15.863 0 16.0741 0.127778 16.2444 0.383333C16.4148 0.638889 16.5 0.955556 16.5 1.33333C16.5 1.71111 16.4148 2.02778 16.2444 2.28333C16.0741 2.53889 15.863 2.66667 15.6111 2.66667H1.38889Z" fill="#374151"/>
</g>
<defs>
<clipPath id="clip0_289_3186">
<rect width="16" height="16" fill="white" transform="translate(0.5)"/>
</clipPath>
</defs>
</svg>
