<svg width="10" height="11" viewBox="0 0 10 11" fill="none" xmlns="http://www.w3.org/2000/svg">
<path d="M4.66667 5.35661C4.025 5.35661 3.47569 5.12814 3.01875 4.67119C2.56181 4.21425 2.33333 3.66494 2.33333 3.02327C2.33333 2.38161 2.56181 1.8323 3.01875 1.37536C3.47569 0.918414 4.025 0.689941 4.66667 0.689941C5.30833 0.689941 5.85764 0.918414 6.31458 1.37536C6.77153 1.8323 7 2.38161 7 3.02327C7 3.66494 6.77153 4.21425 6.31458 4.67119C5.85764 5.12814 5.30833 5.35661 4.66667 5.35661ZM0 8.85661V8.38994C0 8.05939 0.0850694 7.75557 0.255208 7.47848C0.425347 7.2014 0.651389 6.98994 0.933333 6.84411C1.53611 6.54272 2.14861 6.31668 2.77083 6.16598C3.39306 6.01529 4.025 5.93994 4.66667 5.93994C5.30833 5.93994 5.94028 6.01529 6.5625 6.16598C7.18472 6.31668 7.79722 6.54272 8.4 6.84411C8.68194 6.98994 8.90799 7.2014 9.07812 7.47848C9.24826 7.75557 9.33333 8.05939 9.33333 8.38994V8.85661C9.33333 9.17744 9.2191 9.45209 8.99062 9.68057C8.76215 9.90904 8.4875 10.0233 8.16667 10.0233H1.16667C0.845833 10.0233 0.571181 9.90904 0.342708 9.68057C0.114236 9.45209 0 9.17744 0 8.85661Z" fill="#6B7280"/>
</svg>
