<svg width="153" height="24" viewBox="0 0 153 24" fill="none" xmlns="http://www.w3.org/2000/svg">
<path d="M12.2996 14.6217L9.11087 15.3055L14.4883 22.8674H18.1734L12.2996 14.6217Z" fill="#E62800"/>
<path d="M70.8222 3.84249C73.1897 3.84249 75.0867 4.60069 76.6188 6.15999L76.985 6.53337L79.1037 4.41471L78.7703 4.04849C76.8849 1.97991 74.0409 0.841187 70.7621 0.841187C67.4833 0.841187 64.6794 1.96274 62.5779 3.99985C60.4721 6.04126 59.3119 8.87089 59.3119 11.9638C59.3119 15.0566 60.4707 17.8834 62.575 19.9277C64.6722 21.9648 67.5691 23.0863 70.7335 23.0863C73.8979 23.0863 76.8691 21.9362 78.7718 19.849L79.1051 19.4828L76.9821 17.3598L76.6159 17.7389C75.0924 19.3168 73.1969 20.0836 70.8222 20.0836C66.0913 20.0836 62.5235 16.593 62.5235 11.9638C62.5235 7.33448 66.0913 3.84392 70.8222 3.84392V3.84249Z" fill="black"/>
<path d="M108.404 6.08276C106.155 6.08276 104.276 6.78946 102.965 8.10128V6.2015H99.9039V22.9061H103.055V14.1668C103.055 10.9467 104.911 9.02542 108.018 9.02542C110.758 9.02542 112.207 10.5761 112.207 13.5116V22.9061H115.358V13.3028C115.358 8.78222 112.759 6.08276 108.406 6.08276H108.404Z" fill="#00A028"/>
<path d="M127.2 6.08276C124.952 6.08276 123.072 6.78946 121.761 8.10128V6.2015H118.7V22.9061H121.852V14.1668C121.852 10.9467 123.707 9.02542 126.814 9.02542C129.554 9.02542 131.003 10.5761 131.003 13.5116V22.9061H134.154V13.3028C134.154 8.78222 131.555 6.08276 127.202 6.08276H127.2Z" fill="#00A028"/>
<path d="M150.597 8.45319C149.125 6.92536 147.056 6.08276 144.773 6.08276C140.037 6.08276 136.599 9.64485 136.599 14.5545C136.599 19.4642 140.193 23.0563 145.338 23.0563C148.008 23.0563 150.295 22.0807 151.782 20.3096L152.066 19.9706L150.194 17.8162L149.803 18.2654C148.735 19.4928 147.212 20.1423 145.398 20.1423C142.437 20.1423 140.258 18.3913 139.815 15.7276H152.857V15.2097C152.857 15.0996 152.865 14.9837 152.873 14.8707C152.88 14.7591 152.887 14.6547 152.887 14.5545C152.887 12.154 152.075 9.98675 150.599 8.45319H150.597ZM149.752 13.1125H139.822C140.273 10.5919 142.201 8.93529 144.772 8.93529C147.343 8.93529 149.3 10.5904 149.752 13.1125Z" fill="black"/>
<path d="M94.6095 5.15141C94.4721 5.06128 94.2876 5.10134 94.1989 5.23867L88.3765 14.2297C88.2878 14.367 88.3265 14.5516 88.4638 14.6403C88.5139 14.6732 88.5697 14.6875 88.6255 14.6875C88.7227 14.6875 88.8186 14.6403 88.8758 14.5516L94.6982 5.56055C94.7869 5.42321 94.7482 5.23867 94.6109 5.14998L94.6095 5.15141Z" fill="black"/>
<path d="M95.5837 7.09556C97.543 7.09556 99.1314 5.50716 99.1314 3.54778C99.1314 1.58839 97.543 0 95.5837 0C93.6243 0 92.0359 1.58839 92.0359 3.54778C92.0359 5.50716 93.6243 7.09556 95.5837 7.09556Z" fill="#E62800"/>
<path d="M95.0727 2.84688C95.5444 2.84688 95.9268 2.46451 95.9268 1.99284C95.9268 1.52116 95.5444 1.13879 95.0727 1.13879C94.6011 1.13879 94.2187 1.52116 94.2187 1.99284C94.2187 2.46451 94.6011 2.84688 95.0727 2.84688Z" fill="white"/>
<path d="M27.7199 6.08252C22.9833 6.08252 19.5471 9.6446 19.5471 14.5543C19.5471 19.4639 23.1407 23.0561 28.2864 23.0561C30.9558 23.0561 33.2433 22.0804 34.7296 20.3094L35.0143 19.9704L33.1417 17.8159L32.7512 18.2651C31.6826 19.4925 30.1604 20.142 28.3465 20.142C25.3852 20.142 23.2065 18.391 22.763 15.7273H35.8054V15.2095C35.8054 15.0993 35.8126 14.982 35.8211 14.8704C35.8283 14.7588 35.8355 14.6544 35.8355 14.5543C35.8355 12.1538 35.0229 9.98651 33.5466 8.45295C32.0745 6.92512 30.0059 6.08252 27.7228 6.08252H27.7199ZM32.6997 13.1123H22.7702C23.2208 10.5916 25.1492 8.93505 27.7199 8.93505C30.2906 8.93505 32.2476 10.5902 32.6997 13.1123Z" fill="black"/>
<path d="M45.0466 6.08252C42.4573 6.08252 40.0124 6.89794 38.3373 8.32134L38.0011 8.60602L39.5032 11.0938L39.9681 10.6818C41.1841 9.60598 43.0052 8.96509 44.8377 8.96509C47.4385 8.96509 48.7574 10.1839 48.7574 12.5873V13.0221H44.3012C38.589 13.0221 37.7364 16.1279 37.7364 17.979C37.7364 21.0619 40.1841 23.0546 43.9736 23.0546C45.9993 23.0546 47.6788 22.4767 48.8475 21.3995V22.9059H51.9089V12.6774C51.9089 8.42434 49.4713 6.08252 45.0466 6.08252ZM48.7574 15.6372V17.577C47.9835 19.391 46.4456 20.3494 44.3012 20.3494C42.1568 20.3494 40.8579 19.4639 40.8579 17.9189C40.8579 16.939 41.2213 15.6372 44.3613 15.6372H48.7589H48.7574Z" fill="black"/>
<path d="M8.32297 1.01831H0V22.9058H3.24021V16.2924H8.32154C10.5689 16.2981 12.0925 15.7831 12.2441 15.7287C15.543 14.6587 17.3598 12.1566 17.3598 8.68466C17.3598 3.95524 13.8964 1.01831 8.32297 1.01831ZM3.24021 3.96096H8.26289C10.9352 3.96096 14.1196 4.78067 14.1196 8.68609C14.1196 11.7131 12.0396 13.3812 8.26289 13.3812H3.24021V3.96096Z" fill="black"/>
<path d="M93.9099 7.87522L92.2462 10.4445C93.2275 11.4344 93.804 12.8621 93.804 14.553C93.804 17.8433 91.6282 20.1408 88.5138 20.1408C85.3995 20.1408 83.1936 17.8433 83.1936 14.553C83.1936 11.2628 85.3809 8.9653 88.5138 8.9653C89.3436 8.9653 90.1046 9.12981 90.7784 9.43023L92.3964 6.93105C91.2519 6.38458 89.9401 6.0813 88.5138 6.0813C83.5884 6.0813 80.0121 9.64338 80.0121 14.553C80.0121 19.4627 83.587 23.0548 88.5138 23.0548C93.4407 23.0548 96.9856 19.4799 96.9856 14.553C96.9856 11.7492 95.8226 9.38731 93.9113 7.87378L93.9099 7.87522Z" fill="black"/>
</svg>
